# xmcd
#
# Track frame offsets:
#	150
#	15307
#	33535
#	44445
#	61134
#	77670
#	92055
#	106996
#	120185
#	135330
#	153276
#	168918
#	182109
#	192886
#
# Disc length: 2780 seconds
#
# Revision: 0
# Processed by: cddbd v1.5.2PL0 Copyright (c) Steve Scherf et al.
# Submitted via: EasyCDDAExtractor 16.0.6.1
#
DISCID=a00ada0e
DTITLE=Σταμάτης Γονίδης - Best Of
DYEAR=2012
DGENRE=Λαϊκά
TTITLE0=Γιατί κλαίς (Σταμάτης Γονίδης)
TTITLE1=2.30 (Σταμάτης Γονίδης)
TTITLE2=Μη ρωτάς το γιατί (Σταμάτης Γονίδης)
TTITLE3=Μαζεψέ με απ΄τα ξενύχτια (Σταμάτης Γονίδης)
TTITLE4=Τι όνειρα να κάνω (Σταμάτης Γονίδης)
TTITLE5=Σε θέλω (Σταμάτης Γονίδης)
TTITLE6=Είσαι μια πληγή ακόμα (Σταμάτης Γονίδης)
TTITLE7=Μόνος σε διπλό κρεβάτι (Σταμάτης Γονίδης)
TTITLE8=Στάσου (Σταμάτης Γονίδης)
TTITLE9=Ήρθα για να μείνω (Σταμάτης Γονίδης)
TTITLE10=Χθες το βράδυ στ΄ονειρό μου (Σταμάτης Γονίδης)
TTITLE11=Άραγε μπορείς (Σταμάτης Γονίδης)
TTITLE12=Όσα πάνε κι όσα έρθουν (Σταμάτης Γονίδης)
TTITLE13=Σε θέλω (Σταμάτης Γονίδης feat Bo)
EXTD=
EXTT0=
EXTT1=
EXTT2=
EXTT3=
EXTT4=
EXTT5=
EXTT6=
EXTT7=
EXTT8=
EXTT9=
EXTT10=
EXTT11=
EXTT12=
EXTT13=
PLAYORDER=
